# xmcd
#
# Track frame offsets: 
#        150
#        34255
#        51902
#        65578
#        71641
#        84228
#        101991
#        107377
#        121908
#        132365
#        164333
#        181434
#        196815
#        217808
#        223065
#        232345
#        239046
#
# Disc length: 3287 seconds
#
# Revision: 0
# Processed by: cddbd v1.5.2PL0 Copyright (c) Steve Scherf et al.
# Submitted via: ExactAudioCopy v0.95b4
#
DISCID=010cd511
DTITLE=Andrew Liles - my long accumulating discontent
DYEAR=2004
DGENRE=Blues
TTITLE0=Is there anybody there?
TTITLE1=Skobniki
TTITLE2=The Ether Reel
TTITLE3=Dream of the One Legged Woman (Version)
TTITLE4=Dissolved (Te Whare Ao Aitu)
TTITLE5=Dormiveglia
TTITLE6=The New Motor or The Wonderful Infant
TTITLE7=The Children's Infirmary or Precious and sugar Foot 
TTITLE8=A Cold Spring in Summerland
TTITLE9=My Long Accumulating Discontent
TTITLE10=An Unkempt Garden or the Cod Cape
TTITLE11=Last Orders
TTITLE12=The Captain's Apprentice
TTITLE13=Shadow Song
TTITLE14=The Mind as an Engine that Hitherto Ceases to Function Correc
TTITLE14=tly
TTITLE15=The Sour Accompaniment
TTITLE16=By Sewers' Side
EXTD=
EXTT0=
EXTT1=
EXTT2=
EXTT3=
EXTT4=
EXTT5=
EXTT6=
EXTT7=
EXTT8=
EXTT9=
EXTT10=
EXTT11=
EXTT12=
EXTT13=
EXTT14=
EXTT15=
EXTT16=
PLAYORDER=
